<svg id="visual" viewBox="0 0 900 300" width="900" height="300" xmlns="http://www.w3.org/2000/svg" xmlns:xlink="http://www.w3.org/1999/xlink" version="1.1"><path d="M0 68L18.8 78.2C37.7 88.3 75.3 108.7 112.8 107C150.3 105.3 187.7 81.7 225.2 78.5C262.7 75.3 300.3 92.7 337.8 91.5C375.3 90.3 412.7 70.7 450.2 70.8C487.7 71 525.3 91 562.8 102.2C600.3 113.3 637.7 115.7 675.2 118.5C712.7 121.3 750.3 124.7 787.8 121.7C825.3 118.7 862.7 109.3 881.3 104.7L900 100L900 301L881.3 301C862.7 301 825.3 301 787.8 301C750.3 301 712.7 301 675.2 301C637.7 301 600.3 301 562.8 301C525.3 301 487.7 301 450.2 301C412.7 301 375.3 301 337.8 301C300.3 301 262.7 301 225.2 301C187.7 301 150.3 301 112.8 301C75.3 301 37.7 301 18.8 301L0 301Z" fill="#ebeffc"></path><path d="M0 131L18.8 128.3C37.7 125.7 75.3 120.3 112.8 127C150.3 133.7 187.7 152.3 225.2 159.5C262.7 166.7 300.3 162.3 337.8 162.3C375.3 162.3 412.7 166.7 450.2 155.8C487.7 145 525.3 119 562.8 119.8C600.3 120.7 637.7 148.3 675.2 159.5C712.7 170.7 750.3 165.3 787.8 159C825.3 152.7 862.7 145.3 881.3 141.7L900 138L900 301L881.3 301C862.7 301 825.3 301 787.8 301C750.3 301 712.7 301 675.2 301C637.7 301 600.3 301 562.8 301C525.3 301 487.7 301 450.2 301C412.7 301 375.3 301 337.8 301C300.3 301 262.7 301 225.2 301C187.7 301 150.3 301 112.8 301C75.3 301 37.7 301 18.8 301L0 301Z" fill="#f2f4fd"></path><path d="M0 154L18.8 163.2C37.7 172.3 75.3 190.7 112.8 193.3C150.3 196 187.7 183 225.2 185C262.7 187 300.3 204 337.8 214C375.3 224 412.7 227 450.2 216C487.7 205 525.3 180 562.8 172C600.3 164 637.7 173 675.2 179C712.7 185 750.3 188 787.8 190.8C825.3 193.7 862.7 196.3 881.3 197.7L900 199L900 301L881.3 301C862.7 301 825.3 301 787.8 301C750.3 301 712.7 301 675.2 301C637.7 301 600.3 301 562.8 301C525.3 301 487.7 301 450.2 301C412.7 301 375.3 301 337.8 301C300.3 301 262.7 301 225.2 301C187.7 301 150.3 301 112.8 301C75.3 301 37.7 301 18.8 301L0 301Z" fill="#f8fafe"></path><path d="M0 268L18.8 261.7C37.7 255.3 75.3 242.7 112.8 240.2C150.3 237.7 187.7 245.3 225.2 241.7C262.7 238 300.3 223 337.8 220.7C375.3 218.3 412.7 228.7 450.2 238.5C487.7 248.3 525.3 257.7 562.8 255.3C600.3 253 637.7 239 675.2 239.2C712.7 239.3 750.3 253.7 787.8 263C825.3 272.3 862.7 276.7 881.3 278.8L900 281L900 301L881.3 301C862.7 301 825.3 301 787.8 301C750.3 301 712.7 301 675.2 301C637.7 301 600.3 301 562.8 301C525.3 301 487.7 301 450.2 301C412.7 301 375.3 301 337.8 301C300.3 301 262.7 301 225.2 301C187.7 301 150.3 301 112.8 301C75.3 301 37.7 301 18.8 301L0 301Z" fill="#ffffff"></path></svg>