<svg id="visual" viewBox="0 0 900 600" width="900" height="600" xmlns="http://www.w3.org/2000/svg" xmlns:xlink="http://www.w3.org/1999/xlink" version="1.1"><path d="M0 250L21.5 261.5C43 273 86 296 128.8 306.3C171.7 316.7 214.3 314.3 257.2 314C300 313.7 343 315.3 385.8 308.7C428.7 302 471.3 287 514.2 265.5C557 244 600 216 642.8 209.5C685.7 203 728.3 218 771.2 230.8C814 243.7 857 254.3 878.5 259.7L900 265L900 601L878.5 601C857 601 814 601 771.2 601C728.3 601 685.7 601 642.8 601C600 601 557 601 514.2 601C471.3 601 428.7 601 385.8 601C343 601 300 601 257.2 601C214.3 601 171.7 601 128.8 601C86 601 43 601 21.5 601L0 601Z" fill="#ebeffc"></path><path d="M0 349L21.5 353.5C43 358 86 367 128.8 373.8C171.7 380.7 214.3 385.3 257.2 389.2C300 393 343 396 385.8 389.5C428.7 383 471.3 367 514.2 355.2C557 343.3 600 335.7 642.8 343.7C685.7 351.7 728.3 375.3 771.2 384.5C814 393.7 857 388.3 878.5 385.7L900 383L900 601L878.5 601C857 601 814 601 771.2 601C728.3 601 685.7 601 642.8 601C600 601 557 601 514.2 601C471.3 601 428.7 601 385.8 601C343 601 300 601 257.2 601C214.3 601 171.7 601 128.8 601C86 601 43 601 21.5 601L0 601Z" fill="#f2f4fd"></path><path d="M0 399L21.5 410.8C43 422.7 86 446.3 128.8 455.5C171.7 464.7 214.3 459.3 257.2 438.3C300 417.3 343 380.7 385.8 375C428.7 369.3 471.3 394.7 514.2 411.8C557 429 600 438 642.8 443C685.7 448 728.3 449 771.2 445.2C814 441.3 857 432.7 878.5 428.3L900 424L900 601L878.5 601C857 601 814 601 771.2 601C728.3 601 685.7 601 642.8 601C600 601 557 601 514.2 601C471.3 601 428.7 601 385.8 601C343 601 300 601 257.2 601C214.3 601 171.7 601 128.8 601C86 601 43 601 21.5 601L0 601Z" fill="#f8fafe"></path><path d="M0 524L21.5 513.8C43 503.7 86 483.3 128.8 475.3C171.7 467.3 214.3 471.7 257.2 468.7C300 465.7 343 455.3 385.8 460.2C428.7 465 471.3 485 514.2 487.3C557 489.7 600 474.3 642.8 476.2C685.7 478 728.3 497 771.2 494.7C814 492.3 857 468.7 878.5 456.8L900 445L900 601L878.5 601C857 601 814 601 771.2 601C728.3 601 685.7 601 642.8 601C600 601 557 601 514.2 601C471.3 601 428.7 601 385.8 601C343 601 300 601 257.2 601C214.3 601 171.7 601 128.8 601C86 601 43 601 21.5 601L0 601Z" fill="#ffffff"></path></svg>