<?xml version="1.0" encoding="utf-8"?>
<svg viewBox="0 0 500 500" xmlns="http://www.w3.org/2000/svg">
  <title>shared_workspace</title>
  <circle cx="367.313" cy="183.557" r="19.342" fill="#ffb8b8" style=""/>
  <path d="M 352.877 193.228 C 352.877 193.228 356.521 220.7 350.915 223.783 C 345.309 226.867 384.273 227.147 384.273 227.147 C 384.273 227.147 375.583 203.32 379.508 196.031 Z" fill="#ffb8b8" style=""/>
  <path d="M 412.725 227.286 L 409.485 242.042 L 402.633 273.261 L 402.427 274.971 L 400.063 294.764 L 398.49 307.912 L 397.435 316.745 C 391.023 320.041 386.375 322.316 386.375 322.316 C 386.375 322.316 385.975 320.312 385.33 317.747 C 380.83 319.096 372.503 321.334 365.446 321.782 C 368.015 324.646 369.196 327.337 367.594 329.323 C 362.76 335.309 342.802 322.768 335.82 318.091 C 335.658 319.211 335.597 320.343 335.636 321.474 L 330.295 317.366 L 330.823 307.912 L 331.715 291.918 L 332.835 271.859 C 332.482 271 332.186 270.118 331.949 269.221 C 330.313 263.403 328.327 251.784 326.804 242.042 C 325.579 234.201 324.658 227.575 324.463 226.165 C 324.437 225.981 324.424 225.887 324.424 225.887 L 353.996 212.819 C 356.098 217.694 365.911 219.158 365.911 219.158 C 374.042 218.598 380.415 214.311 380.415 214.311 Z" fill="#d0cde1" style=""/>
  <path d="M 388.618 316.71 C 388.618 316.71 387.367 317.14 385.33 317.747 C 380.83 319.096 372.503 321.334 365.446 321.782 C 359.37 322.171 354.235 321.235 353.296 317.271 C 352.894 315.566 353.464 314.164 354.709 313.012 C 358.423 309.569 368.123 308.336 375.817 307.912 C 377.989 307.794 379.999 307.739 381.672 307.718 C 384.512 307.681 386.375 307.739 386.375 307.739 L 386.419 307.912 Z" fill="#ffb8b8" style=""/>
  <path d="M 351.223 165.261 L 347.606 163.814 C 347.606 163.814 355.168 155.488 365.688 156.213 L 362.73 152.955 C 362.73 152.955 369.963 150.059 376.538 157.66 C 379.995 161.656 383.994 166.353 386.487 171.644 L 390.36 171.644 L 388.744 175.203 L 394.401 178.762 L 388.594 178.123 C 388.94 180.072 388.993 182.062 388.752 184.027 C 388.503 185.992 387.5 187.783 385.955 189.024 L 385.955 189.024 C 385.955 189.024 381.47 179.74 381.47 178.292 L 381.47 181.912 C 381.47 181.912 377.853 178.654 377.853 176.482 L 375.881 179.016 L 374.894 175.034 L 362.73 179.016 L 364.702 175.759 L 357.141 176.844 L 360.1 172.863 C 360.1 172.863 351.552 177.568 351.223 181.55 C 350.894 185.531 348.392 189.304 348.392 189.304 C 348.392 189.304 341.689 170.691 351.223 165.261 Z" fill="#2f2e41" style=""/>
  <path d="M 433.749 295.124 C 431.779 297.259 426.897 300.476 420.979 303.959 C 418.777 305.253 416.434 306.587 414.043 307.912 C 408.338 311.077 402.364 314.212 397.435 316.745 C 391.023 320.041 386.375 322.316 386.375 322.316 C 386.375 322.316 385.975 320.312 385.33 317.747 C 384.468 314.314 383.169 309.877 381.814 307.912 C 381.766 307.844 381.719 307.781 381.672 307.718 C 381.277 307.199 380.88 306.897 380.488 306.897 L 400.063 294.764 L 408.522 289.519 L 402.427 274.971 L 394.784 256.722 L 399.397 242.042 L 404.034 227.286 L 412.725 227.286 C 412.725 227.286 415.602 233.567 419.282 242.326 C 419.832 243.636 420.4 245.001 420.979 246.411 C 428.549 264.823 437.986 290.534 433.749 295.124 Z" fill="#d0cde1" style=""/>
  <path d="M 367.594 329.323 C 362.76 335.309 342.802 322.768 335.82 318.091 C 334.3 317.073 333.395 316.429 333.395 316.429 L 339.782 307.912 L 341.805 305.216 C 341.805 305.216 343.615 306.176 346.289 307.739 C 346.386 307.796 346.484 307.854 346.584 307.912 C 348.891 309.267 351.787 311.037 354.709 313.012 C 358.741 315.74 362.818 318.852 365.446 321.782 C 368.015 324.646 369.196 327.337 367.594 329.323 Z" fill="#ffb8b8" style=""/>
  <path fill="rgb(255,0,0)" stroke="rgb(255,0,0)" stroke-width="0" opacity="0.9921568627450981" d="M 266.977 272.117 C 267.538 272.045 268.007 272.172 268.486 272.383 C 269.002 272.611 269.518 272.96 269.951 273.493 C 270.476 274.14 270.813 274.946 271.282 276.156 C 271.968 277.924 273.101 281.913 273.501 283.523 C 273.734 284.46 273.779 284.657 273.856 285.476 C 273.962 286.587 274.126 288.354 273.945 289.737 C 273.767 291.105 273.393 292.59 272.791 293.731 C 272.351 294.564 271.437 295.543 270.887 296.09 C 270.973 296.604 271.039 297.17 271.106 297.793 C 271.271 299.33 271.505 301.978 271.372 303.385 C 271.277 304.385 271.049 304.965 270.751 305.693 C 270.455 306.414 270.271 306.776 269.597 307.734 C 268.551 309.222 265.873 312.766 263.986 314.771 C 264.108 315.206 264.224 315.749 264.272 316.207 C 264.322 316.688 264.321 316.994 264.272 317.604 C 264.2 318.501 263.987 320.099 263.737 321.231 C 263.503 322.29 263.267 323.258 262.845 324.204 C 262.418 325.161 261.689 326.216 261.18 326.939 C 260.78 327.506 260.188 328.152 260.066 328.291 C 260.033 328.328 260.044 328.315 260.021 328.336 C 259.983 328.37 259.947 328.375 259.843 328.484 C 259.713 328.619 259.429 328.989 259.104 329.401 C 258.769 329.399 258.443 329.4 258.149 329.392 C 257.266 329.367 256.629 329.447 255.674 329.438 C 254.735 329.43 253.233 329.294 252.225 329.283 C 252.122 329.012 252.085 328.762 252.054 328.514 C 252.023 328.257 252.007 328.062 252.054 327.771 C 252.115 327.396 252.248 326.875 252.47 326.433 C 252.716 325.947 253.229 325.313 253.511 324.991 C 253.698 324.777 253.783 324.77 253.987 324.56 C 254.303 324.234 254.868 323.63 255.265 323.104 C 255.673 322.562 256.125 321.945 256.394 321.35 C 256.646 320.794 256.736 320.274 256.87 319.655 C 256.933 319.363 257.024 318.975 257.099 318.597 C 255.636 318.815 253.325 318.944 252.066 318.696 C 251.008 318.488 250.155 317.944 249.625 317.498 C 249.233 317.168 249.078 316.87 248.915 316.433 C 248.91 316.42 248.905 316.406 248.9 316.392 C 248.858 316.356 248.816 316.319 248.774 316.282 C 247.881 315.486 246.67 314.056 246.111 312.909 C 245.615 311.891 245.419 310.905 245.401 309.802 C 245.381 308.609 245.748 306.993 246.111 305.985 C 246.4 305.181 246.691 304.556 247.22 304.077 C 247.523 303.803 247.938 303.563 248.365 303.386 C 248.528 303.309 248.714 303.238 248.964 303.172 C 249.675 302.985 251.005 302.75 252.031 302.744 C 253.062 302.737 254.14 302.895 255.135 303.136 C 256.113 303.374 257.219 303.836 257.953 304.171 C 258.512 304.426 258.82 304.603 259.273 304.92 C 259.786 305.279 260.566 305.977 260.86 306.258 C 261.013 306.403 261.019 306.45 261.128 306.561 C 261.21 306.644 261.343 306.759 261.453 306.858 C 262.31 305.8 263.228 304.609 263.765 303.726 C 263.724 303.572 263.688 303.408 263.649 303.229 C 263.477 302.451 264.092 300.831 263.471 300.344 C 262.708 299.745 260.101 300.864 258.634 300.699 C 257.3 300.549 256.017 300.055 254.994 299.545 C 254.091 299.095 253.02 298.139 252.731 297.903 C 252.633 297.823 252.679 297.872 252.598 297.77 C 252.346 297.453 251.189 295.972 250.778 295.151 C 250.434 294.464 250.279 293.94 250.157 293.198 C 250.015 292.343 249.991 291.14 250.068 290.269 C 250.135 289.508 250.2 288.919 250.512 288.228 C 250.871 287.429 251.527 286.459 252.243 285.787 C 252.961 285.111 253.788 284.521 254.817 284.189 C 255.987 283.811 257.568 283.618 258.989 283.834 C 260.521 284.067 262.539 285.018 263.693 285.698 C 264.566 286.212 265.34 287.052 265.601 287.34 C 265.707 287.456 265.687 287.501 265.735 287.562 C 265.776 287.616 265.795 287.614 265.868 287.695 C 266.033 287.878 266.631 288.876 266.8 288.805 C 266.985 288.727 266.998 287.978 266.844 286.985 C 266.516 284.867 263.49 277.627 263.56 275.357 C 263.597 274.144 264.099 273.634 264.669 273.094 C 265.239 272.555 266.294 272.205 266.977 272.117 Z M 252.946 310.379 C 253.202 310.677 253.774 311.008 254.1 311.4 C 254.138 311.446 254.177 311.493 254.214 311.54 C 254.76 311.622 255.305 311.694 255.794 311.595 C 255.913 311.571 256.032 311.54 256.151 311.504 C 255.825 311.186 255.48 310.875 255.206 310.699 C 254.615 310.318 253.933 310.132 253.387 309.985 C 253.104 309.909 252.844 309.862 252.595 309.836 C 252.633 310.125 252.768 310.173 252.946 310.379 Z M 257.701 290.846 C 257.431 290.781 257.253 290.786 257.169 290.935 C 257.042 291.162 257.332 292.161 257.435 292.444 C 257.49 292.595 257.476 292.606 257.613 292.71 C 257.906 292.934 258.921 293.472 259.566 293.598 C 260.163 293.715 261.22 293.734 261.341 293.509 C 261.448 293.309 260.971 292.806 260.542 292.444 C 259.928 291.926 258.257 290.98 257.701 290.846 Z" style="fill: rgb(208, 205, 225); fill-opacity: 1; fill-rule: nonzero; stroke: none; stroke-dasharray: none; stroke-dashoffset: 0px; stroke-linecap: butt; stroke-linejoin: miter; stroke-miterlimit: 4; stroke-opacity: 1; stroke-width: 1px; paint-order: normal; vector-effect: none; opacity: 1; mix-blend-mode: normal; isolation: auto;"/>
  <path stroke="rgb(255,0,0)" stroke-width="0" opacity="0.984313725490196" d="M 197.176 155.302 C 197.31 154.235 197.765 152.535 198.096 151.479 C 198.32 150.767 198.498 150.284 198.774 149.704 C 198.895 149.139 199.078 148.587 199.324 147.942 C 199.811 146.662 200.653 145.106 201.518 143.694 C 202.432 142.203 203.659 140.52 204.704 139.234 C 205.626 138.099 206.281 137.385 207.43 136.296 C 208.885 134.915 211.502 132.626 212.952 131.623 C 213.362 131.339 213.707 131.124 214.029 130.947 C 214.352 130.741 214.704 130.542 215.104 130.342 C 215.428 130.18 215.786 130.038 216.169 129.907 C 217.205 129.295 218.43 128.768 219.776 128.203 C 221.177 127.614 223.189 126.908 224.983 126.341 C 226.147 125.716 227.271 125.124 228.202 124.749 C 229.778 124.115 230.938 123.857 232.237 123.546 C 233.458 123.254 234.698 122.994 235.777 122.909 C 235.882 122.901 235.987 122.894 236.091 122.888 C 236.181 122.876 236.269 122.866 236.356 122.858 C 237.31 122.766 238.253 122.883 239.152 123.124 C 239.52 123.215 239.867 123.33 240.238 123.475 C 240.342 123.516 240.446 123.558 240.551 123.602 C 240.943 123.763 241.321 123.941 241.683 124.127 C 243.207 124.908 244.698 126.276 245.615 127.551 C 245.673 127.632 245.729 127.713 245.783 127.796 C 245.982 127.994 246.182 128.212 246.382 128.458 C 246.748 128.909 247.18 129.545 247.603 130.224 C 248.588 131.452 249.585 132.8 250.222 133.907 C 251.331 135.835 251.746 137.221 252.488 139.642 C 253.48 142.883 254.917 148.656 255.39 152.102 C 255.757 154.767 255.669 157.105 255.603 158.828 C 255.555 160.062 255.488 160.633 255.249 161.731 C 254.957 163.071 254.366 165.083 253.833 166.332 C 253.401 167.346 252.991 168.011 252.417 168.81 C 251.811 169.654 251.144 170.51 250.258 171.253 C 249.715 171.707 249.016 172.192 248.317 172.612 C 248.022 172.818 247.718 173.01 247.41 173.177 C 246.255 173.802 245.062 174.212 243.516 174.593 C 241.623 175.059 238.743 175.402 236.719 175.584 C 235.498 175.694 234.344 175.618 233.302 175.635 C 232.743 175.769 232.248 175.914 231.86 176.074 C 230.508 176.629 229.691 177.337 229.064 178.021 C 228.564 178.565 228.533 179.175 228.143 179.72 C 228.078 179.811 228.009 179.903 227.937 179.994 C 227.879 181.357 227.864 182.663 227.897 183.638 C 227.935 184.758 228.063 185.632 228.213 186.423 C 228.698 187.929 229.205 189.483 229.389 190.537 C 229.517 191.268 229.579 191.837 229.591 192.375 C 229.933 194.172 230.271 196.664 231.101 199.153 C 232.539 203.465 236.19 210.586 237.898 214.799 C 239.179 217.959 240.014 220.364 240.801 222.587 C 240.94 222.98 241.081 223.363 241.218 223.734 C 242.141 225.227 243.195 227.097 243.968 228.151 C 244.812 229.302 245.268 230.025 246.216 230.778 C 247.031 231.426 248.304 231.904 249.303 232.398 C 249.763 232.452 250.208 232.511 250.594 232.567 C 251.236 232.471 251.828 232.374 252.188 232.279 C 252.728 232.137 252.833 232.057 253.277 231.853 C 253.883 231.574 254.685 231.234 255.548 230.67 C 255.881 230.453 256.267 230.151 256.673 229.817 C 256.736 229.753 256.793 229.695 256.844 229.646 C 256.982 229.513 257.082 229.452 257.176 229.398 C 257.322 229.276 257.468 229.152 257.614 229.029 C 257.744 228.868 257.867 228.684 258.17 228.415 C 259.003 227.674 261.393 225.831 262.76 224.913 C 263.879 224.162 264.873 223.621 265.789 223.162 C 266.566 222.773 267.225 222.468 267.919 222.262 C 268.199 222.179 268.466 222.114 268.734 222.063 C 269.299 221.935 269.896 221.843 270.462 221.819 C 271.455 221.777 272.549 221.918 273.491 222.15 C 274.389 222.371 275.059 222.651 276 223.144 C 277.189 223.768 278.915 224.899 280.07 225.795 C 281.085 226.582 281.629 227.137 282.649 228.185 C 284.039 229.612 286.474 232.336 287.713 233.864 C 288.611 234.97 289.183 235.662 289.701 236.609 C 289.863 236.905 290.014 237.207 290.15 237.512 C 290.97 239.103 291.962 241.289 292.613 242.826 C 293.322 244.501 293.966 246.088 294.296 247.411 C 294.301 247.433 294.307 247.455 294.312 247.477 C 294.456 247.834 294.582 248.18 294.679 248.494 C 294.939 249.34 295.016 250.007 295.085 250.816 C 295.158 251.667 295.162 252.499 295.085 253.486 C 294.996 254.632 294.805 256.235 294.505 257.317 C 294.252 258.229 293.959 258.841 293.518 259.639 C 293.022 260.537 292.384 261.449 291.602 262.425 C 290.7 263.552 289.371 265.01 288.323 265.995 C 287.419 266.844 286.487 267.56 285.711 268.085 C 285.66 268.12 285.609 268.153 285.559 268.186 C 284.981 268.68 284.391 269.149 283.861 269.527 C 283.079 270.085 282.717 270.32 281.636 270.852 C 279.896 271.707 276.343 273.204 273.78 274.118 C 271.348 274.985 268.583 275.799 266.633 276.247 C 265.154 276.587 264.03 276.728 262.941 276.815 C 262.02 276.889 261.468 276.858 260.48 276.815 C 259.2 276.76 257.191 276.602 255.795 276.437 C 254.601 276.295 253.549 276.215 252.579 275.931 C 252.128 275.848 251.671 275.742 251.188 275.622 C 250.16 275.366 248.946 274.94 247.923 274.581 C 246.967 274.245 246.155 273.958 245.225 273.539 C 244.22 273.087 243.206 272.554 242.101 271.93 C 240.87 271.235 239.631 270.582 238.173 269.516 C 236.347 268.182 233.506 265.806 231.997 264.287 C 230.87 263.152 230.209 262.205 229.536 261.258 C 229.256 260.864 229.002 260.495 228.773 260.13 C 228.124 259.333 227.443 258.428 226.849 257.546 C 226.291 256.717 225.731 255.684 225.202 254.705 C 224.783 254.203 224.406 253.678 224.065 253.063 C 224.001 252.949 223.938 252.83 223.876 252.707 C 223.572 252.358 223.381 252.051 223.147 251.667 C 223.007 251.437 222.871 251.185 222.745 250.928 C 222.597 250.737 222.459 250.537 222.332 250.307 C 221.971 249.86 221.693 249.407 221.29 248.757 C 220.544 247.552 219.333 245.379 218.741 244.013 C 218.696 243.91 218.653 243.808 218.612 243.709 C 218.489 243.511 218.358 243.286 218.206 243.016 C 217.337 241.47 215.677 237.793 215.021 236.007 C 214.966 235.857 214.915 235.714 214.867 235.577 C 214.854 235.555 214.841 235.533 214.828 235.511 C 214.234 234.503 213.3 232.619 212.509 230.93 C 212.223 230.499 211.94 229.986 211.617 229.292 C 210.475 226.838 208.878 220.546 207.865 217.823 C 207.194 216.018 206.6 215.106 206.166 213.858 C 205.994 213.365 205.835 212.875 205.698 212.399 C 205.3 211.379 204.942 210.219 204.514 208.84 C 204.129 207.605 203.669 205.791 203.221 204.033 C 203.114 203.83 203.01 203.62 202.907 203.402 C 202.297 202.106 201.757 200.072 201.42 198.8 C 201.291 198.311 201.188 197.903 201.107 197.513 C 201.085 197.446 201.064 197.376 201.044 197.3 C 200.981 197.062 200.923 196.81 200.872 196.548 C 200.178 194.701 199.481 191.954 199.017 189.688 C 198.58 187.549 198.46 185.344 198.174 183.191 C 197.929 182.689 197.731 182.157 197.539 181.315 C 197.439 180.879 197.343 180.3 197.252 179.643 C 197.057 179.194 196.886 178.703 196.771 178.082 C 196.575 177.027 196.475 175.322 196.508 173.948 C 196.462 173.421 196.425 172.895 196.4 172.38 C 196.395 172.352 196.39 172.323 196.385 172.293 C 196.214 171.296 196.132 169.394 196.104 167.743 C 196.086 167.583 196.07 167.414 196.052 167.223 C 195.978 166.436 195.955 165.827 196.052 164.532 C 196.193 162.659 196.654 158.218 197.14 155.64 C 197.149 155.531 197.161 155.419 197.176 155.302 Z" style="fill-opacity: 1; fill-rule: nonzero; stroke: none; stroke-dasharray: none; stroke-dashoffset: 0px; stroke-linecap: butt; stroke-linejoin: miter; stroke-miterlimit: 4; stroke-opacity: 1; stroke-width: 1px; paint-order: normal; vector-effect: none; opacity: 1; mix-blend-mode: normal; isolation: auto; fill: rgb(229, 26, 148);"/>
  <path d="M 346.289 307.739 C 345.575 307.736 344.862 307.794 344.158 307.912 C 338.112 308.952 336.328 314.425 335.82 318.091 C 335.658 319.211 335.597 320.343 335.636 321.474 L 330.295 317.366 L 328.348 315.869 C 323.663 314.235 319.489 311.334 315.87 307.912 C 312.73 304.891 309.913 301.551 307.466 297.946 C 305.028 294.393 302.855 290.665 300.964 286.794 C 299.896 284.606 299.854 282.058 300.851 279.837 L 307.466 265.094 L 317.135 243.547 C 317.206 243.034 317.284 242.532 317.369 242.042 C 319.287 231.047 324.424 226.165 324.424 226.165 L 328.348 226.165 L 330.973 242.042 L 334.235 261.767 L 331.949 269.221 L 326.668 286.436 L 331.715 291.918 Z" fill="#d0cde1" style=""/>
  <path d="M 350.731 261.782 L 354.086 265.696 C 355.332 265.458 356.634 265.179 357.974 264.866 L 357.011 261.782 L 359.367 264.531 C 373.57 261.038 391.174 254.246 391.174 254.246 C 391.174 254.246 372.169 255.64 357.978 252.539 C 351.699 251.168 345.239 254.28 342.662 260.168 C 341.165 263.59 341.4 266.555 346.712 266.555 C 348.506 266.524 350.296 266.356 352.065 266.052 Z" fill="#1f306d" style=""/>
  <path d="M 427.213 326.114 L 427.213 327.71 C 427.214 328.148 427.133 328.583 426.973 328.992 C 426.902 329.173 426.817 329.349 426.718 329.517 C 426.081 330.588 424.926 331.244 423.68 331.243 L 306.225 331.243 C 304.979 331.244 303.825 330.588 303.187 329.517 C 303.087 329.349 303.002 329.173 302.932 328.992 C 302.772 328.583 302.692 328.148 302.692 327.71 L 302.692 326.114 C 302.692 324.163 304.273 322.581 306.225 322.582 L 312.995 322.582 L 312.995 321.837 C 312.995 321.755 313.061 321.69 313.142 321.69 L 316.675 321.69 C 316.757 321.69 316.822 321.755 316.822 321.837 L 316.822 322.582 L 319.029 322.582 L 319.029 321.837 C 319.029 321.755 319.095 321.69 319.176 321.69 L 322.708 321.69 C 322.79 321.69 322.856 321.755 322.856 321.837 L 322.856 322.582 L 325.066 322.582 L 325.066 321.837 C 325.066 321.755 325.131 321.69 325.213 321.69 L 328.745 321.69 C 328.827 321.69 328.893 321.755 328.892 321.837 L 328.892 322.582 L 331.099 322.582 L 331.099 321.837 C 331.099 321.755 331.165 321.69 331.247 321.69 L 334.779 321.69 C 334.861 321.69 334.927 321.755 334.926 321.837 L 334.926 322.582 L 337.133 322.582 L 337.133 321.837 C 337.133 321.755 337.199 321.69 337.281 321.69 L 340.813 321.69 C 340.894 321.69 340.961 321.755 340.96 321.837 L 340.96 322.582 L 343.17 322.582 L 343.17 321.837 C 343.17 321.755 343.236 321.69 343.317 321.69 L 346.85 321.69 C 346.931 321.69 346.997 321.755 346.997 321.837 L 346.997 322.582 L 349.203 322.582 L 349.203 321.837 C 349.203 321.755 349.27 321.69 349.351 321.69 L 377.021 321.69 C 377.103 321.69 377.169 321.755 377.169 321.837 L 377.169 322.582 L 379.378 322.582 L 379.378 321.837 C 379.378 321.755 379.444 321.69 379.525 321.69 L 383.058 321.69 C 383.139 321.69 383.205 321.756 383.205 321.837 L 383.205 322.582 L 385.412 322.582 L 385.412 321.837 C 385.412 321.755 385.478 321.69 385.56 321.69 L 389.092 321.69 C 389.174 321.69 389.24 321.755 389.239 321.837 L 389.239 322.582 L 391.446 322.582 L 391.446 321.837 C 391.446 321.755 391.512 321.69 391.594 321.69 L 395.126 321.69 C 395.207 321.69 395.274 321.755 395.273 321.837 L 395.273 322.582 L 397.483 322.582 L 397.483 321.837 C 397.483 321.755 397.549 321.69 397.63 321.69 L 401.162 321.69 C 401.243 321.69 401.307 321.757 401.307 321.837 L 401.307 322.582 L 403.516 322.582 L 403.516 321.837 C 403.516 321.755 403.583 321.69 403.664 321.69 L 407.196 321.69 C 407.278 321.69 407.344 321.755 407.344 321.837 L 407.344 322.582 L 409.55 322.582 L 409.55 321.837 C 409.55 321.755 409.616 321.69 409.698 321.69 L 413.23 321.69 C 413.311 321.69 413.378 321.755 413.378 321.837 L 413.378 322.582 L 423.68 322.582 C 425.631 322.581 427.213 324.163 427.213 326.114 Z" fill="#3f3d56" style=""/>
  <path d="M 417.755 258.876 L 373.976 258.876 L 373.976 257.974 L 354.125 257.974 L 354.125 258.876 L 310.165 258.876 C 308.529 258.876 307.203 260.202 307.203 261.837 L 307.203 321.784 C 307.203 323.42 308.529 324.746 310.165 324.746 L 417.755 324.746 C 419.391 324.746 420.717 323.42 420.717 321.784 L 420.717 261.837 C 420.717 260.202 419.391 258.876 417.755 258.876 Z" fill="#3f3d56" style=""/>
  <circle cx="364.046" cy="279.805" r="6.576" fill="none" stroke="#d0cde1" stroke-miterlimit="10" stroke-width="2" style=""/>
  <circle cx="361.942" cy="282.172" r="6.576" fill="#d0cde1" style=""/>
  <circle cx="168.865" cy="220.255" r="9.573" fill="#2f2e41" style=""/>
  <path d="M 171.532 210.946 C 178.777 210.946 183.396 218.684 179.959 225.062 C 184.559 219.306 181.203 210.73 173.919 209.624 C 169.923 209.017 165.976 210.987 164.058 214.546 C 165.87 212.269 168.622 210.944 171.532 210.946 Z" fill="#2f2e41" style=""/>
  <circle cx="150.975" cy="192.114" r="28.121" fill="#2f2e41" style=""/>
  <path d="M 128.905 174.666 C 138.978 163.339 156.216 162.035 167.878 171.718 C 167.648 171.499 167.42 171.278 167.181 171.066 C 151.002 156.683 125.32 165.208 120.954 186.411 C 118.928 196.251 122.305 206.425 129.813 213.1 C 130.052 213.312 130.298 213.513 130.542 213.715 C 119.56 203.268 118.835 185.995 128.905 174.666 Z" fill="#2f2e41" style=""/>
  <circle cx="150.737" cy="201.885" r="18.112" fill="#a0616a" style=""/>
  <path d="M 137.868 207.604 C 137.868 207.604 140.251 229.529 136.438 231.912 C 132.626 234.295 158.364 237.632 158.364 237.632 C 158.364 237.632 154.551 213.8 164.083 207.604 Z" fill="#a0616a" style=""/>
  <path d="M 160.747 228.099 C 160.747 228.099 167.844 224.785 157.622 225.966 C 147.401 227.146 138.582 222.618 138.582 222.618 C 138.582 222.618 135.486 219.52 135.008 222.857 C 134.532 226.192 136.438 232.389 125.953 233.342 C 115.467 234.295 105.934 231.435 102.122 238.585 C 98.308 245.735 100.214 276.715 100.214 276.715 C 100.214 276.715 107.364 302.453 113.084 306.266 C 118.803 310.079 168.849 304.836 168.849 304.836 L 183.148 279.099 L 183.148 249.071 C 183.148 249.071 181.242 238.585 167.896 241.445 C 167.896 241.445 159.317 239.538 159.793 235.249 C 160.27 230.959 160.747 228.099 160.747 228.099 Z" fill="#d0cde1" style=""/>
  <path d="M 114.975 324.481 C 115.27 323.197 115.467 322.471 115.467 322.471 L 115.315 321.426 L 113.744 310.763 L 113.084 306.265 C 118.803 303.883 120.233 292.92 120.233 292.92 L 120.449 292.79 L 121.425 292.207 L 121.425 292.204 L 124.928 290.103 L 124.999 290.06 L 126.415 291.002 L 129.289 292.92 C 136.91 298.606 146.574 300.82 155.911 299.019 C 158.06 298.651 160.161 298.044 162.176 297.21 L 169.109 294.897 L 169.325 294.827 L 169.538 294.858 L 173.605 295.473 L 173.678 295.487 L 174.015 295.537 L 173.073 302.047 L 171.708 311.508 C 175.314 313.417 178.52 317.005 181.324 321.426 C 181.945 322.405 182.546 323.423 183.129 324.481 C 183.886 325.848 184.61 327.271 185.299 328.728 C 185.383 328.902 185.464 329.078 185.546 329.255 C 185.812 329.825 186.074 330.401 186.33 330.98 L 113.713 330.98 C 113.807 330.398 113.902 329.844 113.994 329.309 C 113.999 329.292 114.003 329.273 114.005 329.255 C 114.039 329.076 114.07 328.902 114.099 328.728 C 114.421 326.993 114.731 325.543 114.975 324.481 Z" fill="#2f2e41" style=""/>
  <path d="M 112.13 232.865 C 112.13 232.865 117.373 242.398 115.467 254.313 C 113.56 266.229 121.186 295.78 121.186 295.78 L 126.906 294.35 C 126.906 294.35 123.093 269.566 124.046 263.846 C 125 258.127 125 235.725 120.233 232.865 C 115.467 230.006 112.13 232.865 112.13 232.865 Z" fill="#2f2e41" style=""/>
  <path d="M 167.561 242.772 L 169.564 295.542 L 173.377 297.925 C 173.377 297.925 178.858 240.015 175.999 240.015 L 170.18 240.015 C 168.679 240.015 167.484 241.273 167.561 242.772 Z" fill="#2f2e41" style=""/>
  <circle cx="123.808" cy="292.206" r="2.383" fill="#1f306d" style=""/>
  <circle cx="171.471" cy="294.589" r="2.383" fill="#1f306d" style=""/>
  <polygon points="135.247 179.244 135.247 197.357 139.442 197.357 144.78 191.637 144.064 197.357 162.606 197.357 161.462 191.637 163.75 197.357 166.704 197.357 166.704 179.244 135.247 179.244" fill="#2f2e41" style=""/>
  <ellipse cx="132.387" cy="198.071" rx="1.43" ry="2.621" fill="#a0616a" style=""/>
  <ellipse cx="169.088" cy="198.071" rx="1.43" ry="2.621" fill="#a0616a" style=""/>
  <path d="M 178.858 294.35 C 178.858 294.35 157.172 290.299 155.742 297.449 C 154.312 304.598 179.812 301.5 179.812 301.5 Z" fill="#a0616a" style=""/>
  <path d="M 178.382 245.258 C 178.382 245.258 230.334 286.724 220.802 296.734 C 211.269 306.743 175.045 303.883 175.045 303.883 L 177.429 291.967 L 198.401 289.584 L 187.915 279.099 L 178.382 280.052 Z" fill="#d0cde1" style=""/>
  <path d="M 101.644 314.369 L 108.317 319.612 C 108.317 319.612 113.084 334.387 120.233 330.098 C 127.383 325.808 113.56 310.556 113.56 310.556 L 105.457 307.696 Z" fill="#a0616a" style=""/>
  <path d="M 108.317 237.632 L 101.663 239.635 C 101.663 239.635 55.412 273.856 53.505 283.388 C 51.599 292.921 62.561 298.164 62.561 298.164 L 104.028 317.705 L 108.317 306.266 L 88.776 296.257 C 88.776 296.257 90.206 293.397 84.486 292.921 C 78.766 292.444 77.813 286.248 77.813 286.248 C 77.813 286.248 89.252 268.613 95.449 272.426 C 101.644 276.239 103.551 279.099 103.551 279.099 Z" fill="#d0cde1" style=""/>
  <path d="M 203.234 326.114 L 203.234 327.71 C 203.236 328.148 203.154 328.583 202.996 328.992 C 202.924 329.173 202.839 329.349 202.74 329.517 C 202.102 330.588 200.948 331.244 199.702 331.243 L 82.247 331.243 C 81.001 331.244 79.847 330.588 79.209 329.517 C 79.109 329.349 79.024 329.173 78.954 328.992 C 78.794 328.583 78.713 328.148 78.714 327.71 L 78.714 326.114 C 78.713 324.163 80.295 322.581 82.247 322.582 L 89.017 322.582 L 89.017 321.837 C 89.017 321.755 89.083 321.69 89.164 321.69 L 92.696 321.69 C 92.778 321.69 92.844 321.755 92.844 321.837 L 92.844 322.582 L 95.051 322.582 L 95.051 321.837 C 95.051 321.755 95.117 321.69 95.198 321.69 L 98.731 321.69 C 98.812 321.69 98.878 321.755 98.878 321.837 L 98.878 322.582 L 101.087 322.582 L 101.087 321.837 C 101.087 321.755 101.154 321.69 101.235 321.69 L 104.767 321.69 C 104.849 321.69 104.915 321.755 104.914 321.837 L 104.914 322.582 L 107.121 322.582 L 107.121 321.837 C 107.121 321.755 107.187 321.69 107.269 321.69 L 110.801 321.69 C 110.882 321.69 110.949 321.755 110.949 321.837 L 110.949 322.582 L 113.155 322.582 L 113.155 321.837 C 113.155 321.755 113.221 321.69 113.303 321.69 L 116.835 321.69 C 116.916 321.69 116.982 321.755 116.982 321.837 L 116.982 322.582 L 119.191 322.582 L 119.191 321.837 C 119.191 321.755 119.258 321.69 119.339 321.69 L 122.871 321.69 C 122.953 321.69 123.019 321.755 123.019 321.837 L 123.019 322.582 L 125.225 322.582 L 125.225 321.837 C 125.225 321.755 125.291 321.69 125.373 321.69 L 153.043 321.69 C 153.125 321.69 153.191 321.755 153.191 321.837 L 153.191 322.582 L 155.4 322.582 L 155.4 321.837 C 155.4 321.755 155.466 321.69 155.548 321.69 L 159.08 321.69 C 159.161 321.69 159.226 321.756 159.227 321.837 L 159.227 322.582 L 161.434 322.582 L 161.434 321.837 C 161.434 321.755 161.5 321.69 161.582 321.69 L 165.114 321.69 C 165.195 321.69 165.262 321.755 165.261 321.837 L 165.261 322.582 L 167.468 322.582 L 167.468 321.837 C 167.468 321.755 167.534 321.69 167.615 321.69 L 171.148 321.69 C 171.229 321.69 171.295 321.755 171.295 321.837 L 171.295 322.582 L 173.504 322.582 L 173.504 321.837 C 173.504 321.755 173.571 321.69 173.652 321.69 L 177.184 321.69 C 177.265 321.69 177.329 321.757 177.329 321.837 L 177.329 322.582 L 179.538 322.582 L 179.538 321.837 C 179.538 321.755 179.604 321.69 179.686 321.69 L 183.218 321.69 C 183.299 321.69 183.366 321.755 183.366 321.837 L 183.366 322.582 L 185.572 322.582 L 185.572 321.837 C 185.572 321.755 185.638 321.69 185.72 321.69 L 189.252 321.69 C 189.333 321.69 189.4 321.755 189.4 321.837 L 189.4 322.582 L 199.702 322.582 C 201.653 322.581 203.235 324.163 203.234 326.114 Z" fill="#3f3d56" style=""/>
  <path d="M 193.776 258.874 L 149.997 258.874 L 149.997 257.973 L 130.146 257.973 L 130.146 258.874 L 86.187 258.874 C 84.551 258.874 83.225 260.2 83.225 261.836 L 83.225 321.783 C 83.225 323.419 84.551 324.745 86.187 324.745 L 193.776 324.745 C 195.412 324.745 196.738 323.419 196.738 321.783 L 196.738 261.836 C 196.738 260.2 195.412 258.874 193.776 258.874 Z" fill="#3f3d56" style=""/>
  <circle cx="140.068" cy="279.804" r="6.576" fill="none" stroke="#d0cde1" stroke-miterlimit="10" stroke-width="2" style=""/>
  <circle cx="137.964" cy="282.171" r="6.576" fill="#d0cde1" style=""/>
  <rect x="58.132" y="329.28" width="388.943" height="0.819" fill="#3f3d56" style=""/>
  <path stroke="rgb(255,0,0)" stroke-width="0" opacity="0.9921568627450981" d="M 261.11 113.613 C 261.364 113.576 261.516 113.587 261.749 113.613 C 262.015 113.642 262.349 113.706 262.624 113.802 C 262.892 113.896 263.151 114.03 263.38 114.18 C 263.603 114.327 263.786 114.462 263.984 114.689 C 264.225 114.966 264.544 115.466 264.693 115.777 C 264.806 116.011 264.839 116.168 264.882 116.392 C 264.93 116.637 264.963 116.917 264.953 117.196 C 264.943 117.491 264.91 117.808 264.811 118.118 C 264.705 118.454 264.609 118.682 264.315 119.135 C 263.82 119.899 262.488 121.507 261.737 122.399 C 261.136 123.112 260.558 123.733 260.14 124.161 C 259.848 124.46 259.687 124.63 259.431 124.823 C 259.175 125.016 258.883 125.197 258.603 125.32 C 258.338 125.436 258.071 125.509 257.799 125.556 C 257.527 125.603 257.241 125.62 256.971 125.604 C 256.706 125.587 256.44 125.537 256.191 125.462 C 255.944 125.387 255.732 125.311 255.481 125.154 C 255.175 124.963 254.771 124.671 254.5 124.338 C 254.219 123.994 253.971 123.531 253.837 123.109 C 253.709 122.703 253.686 122.219 253.695 121.855 C 253.703 121.549 253.763 121.301 253.837 121.051 C 253.908 120.814 253.971 120.634 254.121 120.389 C 254.316 120.071 254.725 119.586 254.984 119.313 C 255.187 119.1 255.253 119.136 255.54 118.828 C 256.178 118.143 258.178 115.365 258.958 114.606 C 259.377 114.198 259.552 114.109 259.904 113.944 C 260.267 113.774 260.778 113.661 261.11 113.613 Z M 269.795 123.759 C 270.085 123.728 270.344 123.741 270.623 123.782 C 270.912 123.825 271.192 123.875 271.498 124.019 C 271.861 124.191 272.33 124.49 272.645 124.811 C 272.954 125.127 273.225 125.607 273.378 125.923 C 273.492 126.159 273.524 126.308 273.567 126.538 C 273.616 126.798 273.663 127.09 273.638 127.413 C 273.609 127.789 273.492 128.315 273.355 128.666 C 273.236 128.968 273.072 129.203 272.905 129.423 C 272.75 129.628 272.576 129.801 272.397 129.955 C 272.225 130.103 272.116 130.186 271.853 130.334 C 271.44 130.565 270.791 130.856 270.008 131.185 C 268.936 131.636 266.87 132.311 265.845 132.793 C 265.119 133.135 264.657 133.544 264.214 133.739 C 263.893 133.881 263.684 133.929 263.409 133.976 C 263.133 134.024 262.831 134.041 262.558 134.023 C 262.296 134.007 262.038 133.951 261.801 133.881 C 261.574 133.815 261.399 133.765 261.163 133.621 C 260.852 133.432 260.395 133.104 260.11 132.758 C 259.822 132.408 259.581 131.951 259.448 131.528 C 259.32 131.122 259.296 130.635 259.306 130.275 C 259.314 129.975 259.38 129.731 259.448 129.494 C 259.51 129.277 259.558 129.122 259.684 128.903 C 259.847 128.62 260.103 128.236 260.406 127.945 C 260.735 127.628 261.156 127.37 261.612 127.094 C 262.121 126.785 262.7 126.471 263.338 126.195 C 264.042 125.89 264.836 125.702 265.68 125.367 C 266.638 124.986 268.073 124.249 268.802 123.995 C 269.252 123.839 269.48 123.792 269.795 123.759 Z M 275.508 146.166 C 275.892 146.147 276.049 146.163 276.314 146.206 C 276.58 146.25 276.847 146.322 277.1 146.428 C 277.358 146.536 277.627 146.692 277.845 146.851 C 278.049 147 278.203 147.131 278.379 147.344 C 278.591 147.602 278.864 148.033 279.003 148.331 C 279.116 148.573 279.161 148.763 279.205 148.996 C 279.25 149.239 279.267 149.526 279.265 149.761 C 279.263 149.972 279.252 150.131 279.205 150.346 C 279.149 150.599 279.076 150.9 278.923 151.192 C 278.744 151.531 278.418 151.977 278.147 152.249 C 277.915 152.483 277.7 152.628 277.422 152.773 C 277.122 152.929 276.904 153.02 276.395 153.135 C 275.532 153.331 273.569 153.488 272.366 153.679 C 271.32 153.846 270.188 154.13 269.546 154.203 C 269.152 154.248 268.999 154.257 268.7 154.223 C 268.371 154.185 267.946 154.074 267.653 153.961 C 267.404 153.866 267.228 153.758 267.028 153.619 C 266.821 153.474 266.61 153.295 266.434 153.105 C 266.258 152.916 266.097 152.694 265.971 152.481 C 265.851 152.278 265.762 152.075 265.689 151.856 C 265.614 151.633 265.557 151.381 265.528 151.151 C 265.499 150.932 265.479 150.762 265.507 150.507 C 265.544 150.177 265.671 149.631 265.789 149.318 C 265.882 149.072 265.982 148.921 266.112 148.734 C 266.246 148.541 266.393 148.357 266.585 148.18 C 266.798 147.983 267.067 147.766 267.35 147.616 C 267.643 147.462 267.822 147.397 268.317 147.274 C 269.202 147.054 271.356 146.72 272.628 146.528 C 273.707 146.366 274.868 146.197 275.508 146.166 Z M 266.496 160.632 C 266.76 160.631 266.896 160.619 267.403 160.713 C 268.512 160.917 272.617 161.945 273.667 162.284 C 274.135 162.435 274.192 162.463 274.453 162.626 C 274.746 162.809 275.104 163.119 275.329 163.361 C 275.517 163.565 275.642 163.771 275.752 163.966 C 275.85 164.139 275.909 164.278 275.974 164.469 C 276.047 164.688 276.122 164.971 276.155 165.215 C 276.186 165.447 276.193 165.662 276.175 165.899 C 276.156 166.151 276.098 166.459 276.034 166.685 C 275.979 166.879 275.942 166.992 275.833 167.189 C 275.682 167.459 275.363 167.922 275.138 168.166 C 274.959 168.359 274.805 168.463 274.614 168.589 C 274.417 168.719 274.186 168.843 273.969 168.931 C 273.763 169.015 273.582 169.072 273.345 169.112 C 273.069 169.159 272.932 169.236 272.398 169.173 C 271.21 169.033 266.764 167.904 265.59 167.521 C 265.047 167.344 264.928 167.264 264.663 167.098 C 264.422 166.947 264.232 166.775 264.049 166.584 C 263.866 166.395 263.693 166.165 263.565 165.96 C 263.451 165.776 263.379 165.63 263.304 165.416 C 263.213 165.161 263.117 164.793 263.082 164.51 C 263.05 164.253 263.042 164.059 263.082 163.784 C 263.13 163.45 263.229 162.996 263.404 162.636 C 263.584 162.266 263.864 161.885 264.16 161.599 C 264.447 161.321 264.834 161.087 265.147 160.934 C 265.414 160.804 265.675 160.742 265.912 160.692 C 266.121 160.648 266.275 160.633 266.496 160.632 Z" style="fill-opacity: 1; fill-rule: nonzero; stroke: none; stroke-dasharray: none; stroke-dashoffset: 0px; stroke-linecap: butt; stroke-linejoin: miter; stroke-miterlimit: 4; stroke-opacity: 1; stroke-width: 1px; paint-order: normal; vector-effect: none; opacity: 1; mix-blend-mode: normal; isolation: auto; fill: rgb(31, 48, 109);"/>
</svg>